<?xml version="1.0" encoding="utf-8"?>
<svg version="1.1" xmlns:xlink="http://www.w3.org/1999/xlink" width="12px" height="12px" xmlns="http://www.w3.org/2000/svg">
  <g transform="matrix(1 0 0 1 -397 -131 )">
    <path d="M 11.4390934844193 0  C 11.6770538243626 0  11.8441926345609 0.110795454545455  11.9405099150142 0.332386363636364  C 12.0368271954674 0.565340909090908  11.9971671388102 0.764204545454545  11.8215297450425 0.928977272727272  L 7.63172804532578 5.13068181818182  L 7.63172804532578 11.4545454545455  C 7.63172804532578 11.6931818181818  7.52124645892351 11.8607954545455  7.30028328611898 11.9573863636364  C 7.22662889518414 11.9857954545455  7.15580736543909 12  7.08781869688385 12  C 6.93484419263456 12  6.80736543909349 11.9460227272727  6.70538243626062 11.8380681818182  L 4.52974504249292 9.65625  C 4.42209631728045 9.54829545454545  4.36827195467422 9.42045454545454  4.36827195467422 9.27272727272727  L 4.36827195467422 5.13068181818182  L 0.178470254957507 0.928977272727272  C 0.0028328611898017 0.764204545454545  -0.0368271954674221 0.565340909090908  0.0594900849858357 0.332386363636364  C 0.155807365439094 0.110795454545455  0.322946175637394 0  0.560906515580737 0  L 11.4390934844193 0  Z " fill-rule="nonzero" fill="#aaaaaa" stroke="none" transform="matrix(1 0 0 1 397 131 )" />
  </g>
</svg>