<?xml version="1.0" encoding="utf-8"?>
<svg version="1.1" xmlns:xlink="http://www.w3.org/1999/xlink" width="7px" height="12px" xmlns="http://www.w3.org/2000/svg">
  <g transform="matrix(1 0 0 1 -1259 -3826 )">
    <path d="M 6.87972508591065 5.72344689378758  C 6.95990836197022 5.80360721442886  7 5.89579158316633  7 6  C 7 6.10420841683367  6.95990836197022 6.19639278557114  6.87972508591065 6.27655310621242  L 1.27491408934708 11.8797595190381  C 1.19473081328751 11.9599198396794  1.10252004581901 12  0.998281786941581 12  C 0.894043528064147 12  0.801832760595647 11.9599198396794  0.721649484536082 11.8797595190381  L 0.120274914089347 11.2785571142285  C 0.0400916380297824 11.1983967935872  0 11.1062124248497  0 11.002004008016  C 0 10.8977955911824  0.0400916380297824 10.8056112224449  0.120274914089347 10.7254509018036  L 4.84707903780069 6  L 0.120274914089347 1.27454909819639  C 0.0400916380297824 1.19438877755511  0 1.10220440881763  0 0.997995991983968  C 0 0.893787575150299  0.0400916380297824 0.801603206412824  0.120274914089347 0.721442885771542  L 0.721649484536082 0.120240480961924  C 0.801832760595647 0.0400801603206409  0.894043528064147 0  0.998281786941581 0  C 1.10252004581901 0  1.19473081328751 0.0400801603206409  1.27491408934708 0.120240480961924  L 6.87972508591065 5.72344689378758  Z " fill-rule="nonzero" fill="#aaaaaa" stroke="none" transform="matrix(1 0 0 1 1259 3826 )" />
  </g>
</svg>