<?xml version="1.0" encoding="utf-8"?>
<svg version="1.1" xmlns:xlink="http://www.w3.org/1999/xlink" width="12px" height="12px" viewBox="1228 3975  12 12" xmlns="http://www.w3.org/2000/svg">
  <path d="M 1234 3975  C 1237.36 3975  1240 3977.64  1240 3981  C 1240 3984.36  1237.36 3987  1234 3987  C 1230.64 3987  1228 3984.36  1228 3981  C 1228 3977.64  1230.64 3975  1234 3975  Z " fill-rule="nonzero" fill="#ffffff" stroke="none" />
  <path d="M 1234 3975.5  C 1237.08 3975.5  1239.5 3977.92  1239.5 3981  C 1239.5 3984.08  1237.08 3986.5  1234 3986.5  C 1230.92 3986.5  1228.5 3984.08  1228.5 3981  C 1228.5 3977.92  1230.92 3975.5  1234 3975.5  Z " stroke-width="1" stroke="#797979" fill="none" />
  <path d="M 1234 3984  C 1232.32 3984  1231 3982.68  1231 3981  C 1231 3979.32  1232.32 3978  1234 3978  C 1235.68 3978  1237 3979.32  1237 3981  C 1237 3982.68  1235.68 3984  1234 3984  " fill-rule="nonzero" fill="#797979" stroke="none" />
</svg>