<?xml version="1.0" encoding="utf-8"?>
<svg version="1.1" xmlns:xlink="http://www.w3.org/1999/xlink" width="12px" height="12px" viewBox="1228 3930  12 12" xmlns="http://www.w3.org/2000/svg">
  <path d="M 1234 3930  C 1237.36 3930  1240 3932.64  1240 3936  C 1240 3939.36  1237.36 3942  1234 3942  C 1230.64 3942  1228 3939.36  1228 3936  C 1228 3932.64  1230.64 3930  1234 3930  Z " fill-rule="nonzero" fill="#ffffff" stroke="none" />
  <path d="M 1234 3930.5  C 1237.08 3930.5  1239.5 3932.92  1239.5 3936  C 1239.5 3939.08  1237.08 3941.5  1234 3941.5  C 1230.92 3941.5  1228.5 3939.08  1228.5 3936  C 1228.5 3932.92  1230.92 3930.5  1234 3930.5  Z " stroke-width="1" stroke="#797979" fill="none" />
  <path d="M 1234 3939  C 1232.32 3939  1231 3937.68  1231 3936  C 1231 3934.32  1232.32 3933  1234 3933  C 1235.68 3933  1237 3934.32  1237 3936  C 1237 3937.68  1235.68 3939  1234 3939  " fill-rule="nonzero" fill="#797979" stroke="none" />
</svg>