<?xml version="1.0" encoding="utf-8"?>
<svg version="1.1" xmlns:xlink="http://www.w3.org/1999/xlink" width="12px" height="12px" viewBox="1228 4062  12 12" xmlns="http://www.w3.org/2000/svg">
  <path d="M 1234 4062  C 1237.36 4062  1240 4064.64  1240 4068  C 1240 4071.36  1237.36 4074  1234 4074  C 1230.64 4074  1228 4071.36  1228 4068  C 1228 4064.64  1230.64 4062  1234 4062  Z " fill-rule="nonzero" fill="#ffffff" stroke="none" />
  <path d="M 1234 4062.5  C 1237.08 4062.5  1239.5 4064.92  1239.5 4068  C 1239.5 4071.08  1237.08 4073.5  1234 4073.5  C 1230.92 4073.5  1228.5 4071.08  1228.5 4068  C 1228.5 4064.92  1230.92 4062.5  1234 4062.5  Z " stroke-width="1" stroke="#797979" fill="none" />
  <path d="M 1234 4071  C 1232.32 4071  1231 4069.68  1231 4068  C 1231 4066.32  1232.32 4065  1234 4065  C 1235.68 4065  1237 4066.32  1237 4068  C 1237 4069.68  1235.68 4071  1234 4071  " fill-rule="nonzero" fill="#797979" stroke="none" />
</svg>