<?xml version="1.0" encoding="utf-8"?>
<svg version="1.1" xmlns:xlink="http://www.w3.org/1999/xlink" width="12px" height="12px" viewBox="1228 4019  12 12" xmlns="http://www.w3.org/2000/svg">
  <path d="M 1234 4019  C 1237.36 4019  1240 4021.64  1240 4025  C 1240 4028.36  1237.36 4031  1234 4031  C 1230.64 4031  1228 4028.36  1228 4025  C 1228 4021.64  1230.64 4019  1234 4019  Z " fill-rule="nonzero" fill="#ffffff" stroke="none" />
  <path d="M 1234 4019.5  C 1237.08 4019.5  1239.5 4021.92  1239.5 4025  C 1239.5 4028.08  1237.08 4030.5  1234 4030.5  C 1230.92 4030.5  1228.5 4028.08  1228.5 4025  C 1228.5 4021.92  1230.92 4019.5  1234 4019.5  Z " stroke-width="1" stroke="#797979" fill="none" />
  <path d="M 1234 4028  C 1232.32 4028  1231 4026.68  1231 4025  C 1231 4023.32  1232.32 4022  1234 4022  C 1235.68 4022  1237 4023.32  1237 4025  C 1237 4026.68  1235.68 4028  1234 4028  " fill-rule="nonzero" fill="#797979" stroke="none" />
</svg>