<?xml version="1.0" encoding="utf-8"?>
<svg version="1.1" xmlns:xlink="http://www.w3.org/1999/xlink" width="12px" height="12px" viewBox="1228 3885  12 12" xmlns="http://www.w3.org/2000/svg">
  <path d="M 1234 3885  C 1237.36 3885  1240 3887.64  1240 3891  C 1240 3894.36  1237.36 3897  1234 3897  C 1230.64 3897  1228 3894.36  1228 3891  C 1228 3887.64  1230.64 3885  1234 3885  Z " fill-rule="nonzero" fill="#ffffff" stroke="none" />
  <path d="M 1234 3885.5  C 1237.08 3885.5  1239.5 3887.92  1239.5 3891  C 1239.5 3894.08  1237.08 3896.5  1234 3896.5  C 1230.92 3896.5  1228.5 3894.08  1228.5 3891  C 1228.5 3887.92  1230.92 3885.5  1234 3885.5  Z " stroke-width="1" stroke="#797979" fill="none" />
  <path d="M 1234 3894  C 1232.32 3894  1231 3892.68  1231 3891  C 1231 3889.32  1232.32 3888  1234 3888  C 1235.68 3888  1237 3889.32  1237 3891  C 1237 3892.68  1235.68 3894  1234 3894  " fill-rule="nonzero" fill="#797979" stroke="none" />
</svg>