<?xml version="1.0" encoding="utf-8"?>
<svg version="1.1" xmlns:xlink="http://www.w3.org/1999/xlink" width="14px" height="9px" xmlns="http://www.w3.org/2000/svg">
  <g transform="matrix(1 0 0 1 -385 -496 )">
    <path d="M 14 1.99565217391304  C 14 2.14927536231884  13.9449958643507 2.28115942028985  13.8349875930521 2.39130434782609  L 7.39081885856079 8.83478260869565  C 7.2808105872622 8.94492753623188  7.1505376344086 9  7 9  C 6.8494623655914 9  6.7191894127378 8.94492753623188  6.60918114143921 8.83478260869565  L 0.165012406947891 2.39130434782609  C 0.055004135649297 2.28115942028985  0 2.14927536231884  0 1.99565217391304  C 0 1.84202898550725  0.055004135649297 1.71014492753623  0.165012406947891 1.6  L 1.60669975186104 0.165217391304348  C 1.71670802315964 0.0550724637681156  1.84698097601323 0  1.99751861042184 0  C 2.14805624483044 0  2.27832919768404 0.0550724637681156  2.38833746898263 0.165217391304348  L 7 4.78260869565217  L 11.6116625310174 0.165217391304348  C 11.721670802316 0.0550724637681156  11.8519437551696 0  12.0024813895782 0  C 12.1530190239868 0  12.2832919768404 0.0550724637681156  12.393300248139 0.165217391304348  L 13.8349875930521 1.6  C 13.9449958643507 1.71014492753623  14 1.84202898550725  14 1.99565217391304  Z " fill-rule="nonzero" fill="#aaaaaa" stroke="none" transform="matrix(1 0 0 1 385 496 )" />
  </g>
</svg>