<?xml version="1.0" encoding="utf-8"?>
<svg version="1.1" xmlns:xlink="http://www.w3.org/1999/xlink" width="14px" height="10px" xmlns="http://www.w3.org/2000/svg">
  <g transform="matrix(1 0 0 1 -385 -142 )">
    <path d="M 14 7.78260869565217  C 14 7.95330112721417  13.9449958643507 8.09983896940419  13.8349875930521 8.22222222222222  L 12.393300248139 9.81642512077295  C 12.2832919768404 9.93880837359098  12.1530190239868 10  12.0024813895782 10  C 11.8519437551696 10  11.721670802316 9.93880837359098  11.6116625310174 9.81642512077295  L 7 4.68599033816425  L 2.38833746898263 9.81642512077295  C 2.27832919768404 9.93880837359098  2.14805624483044 10  1.99751861042184 10  C 1.84698097601323 10  1.71670802315964 9.93880837359098  1.60669975186104 9.81642512077295  L 0.165012406947891 8.22222222222222  C 0.055004135649297 8.09983896940419  0 7.95330112721417  0 7.78260869565217  C 0 7.61191626409018  0.055004135649297 7.46537842190016  0.165012406947891 7.34299516908212  L 6.60918114143921 0.183574879227053  C 6.7191894127378 0.0611916264090173  6.8494623655914 0  7 0  C 7.1505376344086 0  7.2808105872622 0.0611916264090173  7.39081885856079 0.183574879227053  L 13.8349875930521 7.34299516908212  C 13.9449958643507 7.46537842190016  14 7.61191626409018  14 7.78260869565217  Z " fill-rule="nonzero" fill="#aaaaaa" stroke="none" transform="matrix(1 0 0 1 385 142 )" />
  </g>
</svg>