<?xml version="1.0" encoding="utf-8"?>
<svg version="1.1" xmlns:xlink="http://www.w3.org/1999/xlink" width="12px" height="8px" xmlns="http://www.w3.org/2000/svg">
  <g transform="matrix(1 0 0 1 -909 -151 )">
    <path d="M 11.8797595190381 6.54295532646048  C 11.9599198396794 6.63459335624284  12 6.73997709049255  12 6.85910652920962  C 12 6.97823596792669  11.9599198396794 7.0836197021764  11.8797595190381 7.17525773195876  L 11.2785571142285 7.86254295532646  C 11.1983967935872 7.95418098510882  11.1062124248497 8  11.002004008016 8  C 10.8977955911824 8  10.8056112224449 7.95418098510882  10.7254509018036 7.86254295532646  L 6 2.46048109965636  L 1.27454909819639 7.86254295532646  C 1.19438877755511 7.95418098510882  1.10220440881764 8  0.997995991983968 8  C 0.893787575150301 8  0.801603206412826 7.95418098510882  0.721442885771543 7.86254295532646  L 0.120240480961924 7.17525773195876  C 0.0400801603206414 7.0836197021764  0 6.97823596792669  0 6.85910652920962  C 0 6.73997709049255  0.0400801603206414 6.63459335624284  0.120240480961924 6.54295532646048  L 5.72344689378757 0.13745704467354  C 5.80360721442886 0.0458190148911788  5.89579158316633 0  6 0  C 6.10420841683367 0  6.19639278557114 0.0458190148911788  6.27655310621242 0.13745704467354  L 11.8797595190381 6.54295532646048  Z " fill-rule="nonzero" fill="#aaaaaa" stroke="none" transform="matrix(1 0 0 1 909 151 )" />
  </g>
</svg>