<?xml version="1.0" encoding="utf-8"?>
<svg version="1.1" xmlns:xlink="http://www.w3.org/1999/xlink" width="32px" height="30px" xmlns="http://www.w3.org/2000/svg">
  <g transform="matrix(1 0 0 1 -370 -2313 )">
    <path d="M 8.53333333333333 10.7142857142857  C 8.53333333333333 12.265625  8.98333333333333 13.6941964285714  9.88333333333333 15  C 8.08333333333333 15.0558035714286  6.61111111111111 15.7700892857143  5.46666666666667 17.1428571428571  L 3.23333333333333 17.1428571428571  C 2.32222222222222 17.1428571428571  1.55555555555556 16.9168526785714  0.933333333333333 16.46484375  C 0.311111111111111 16.0128348214286  0 15.3515625  0 14.4810267857143  C 0 10.5412946428571  0.688888888888889 8.57142857142857  2.06666666666667 8.57142857142857  C 2.13333333333333 8.57142857142857  2.375 8.68861607142857  2.79166666666667 8.92299107142857  C 3.20833333333333 9.15736607142857  3.75 9.39453125  4.41666666666667 9.63448660714286  C 5.08333333333333 9.87444196428571  5.74444444444444 9.99441964285714  6.4 9.99441964285714  C 7.14444444444444 9.99441964285714  7.88333333333333 9.86607142857143  8.61666666666667 9.609375  C 8.56111111111111 10.0223214285714  8.53333333333333 10.390625  8.53333333333333 10.7142857142857  Z M 27.675 23.9313616071429  C 27.7138888888889 24.4949776785714  27.7333333333333 25.0725446428571  27.7333333333333 25.6640625  C 27.7333333333333 27.0033482142857  27.3277777777778 28.0608258928571  26.5166666666667 28.8364955357143  C 25.7055555555556 29.6121651785714  24.6277777777778 30  23.2833333333333 30  L 8.71666666666667 30  C 7.37222222222222 30  6.29444444444445 29.6121651785714  5.48333333333333 28.8364955357143  C 4.67222222222222 28.0608258928571  4.26666666666667 27.0033482142857  4.26666666666667 25.6640625  C 4.26666666666667 25.0725446428571  4.28611111111111 24.4949776785714  4.325 23.9313616071429  C 4.36388888888889 23.3677455357143  4.44166666666667 22.7594866071429  4.55833333333333 22.1065848214286  C 4.675 21.4536830357143  4.82222222222222 20.8482142857143  5 20.2901785714286  C 5.17777777777778 19.7321428571429  5.41666666666667 19.1880580357143  5.71666666666667 18.6579241071429  C 6.01666666666667 18.1277901785714  6.36111111111111 17.67578125  6.75 17.3018973214286  C 7.13888888888889 16.9280133928571  7.61388888888889 16.6294642857143  8.175 16.40625  C 8.73611111111111 16.1830357142857  9.35555555555556 16.0714285714286  10.0333333333333 16.0714285714286  C 10.1444444444444 16.0714285714286  10.3833333333333 16.19140625  10.75 16.4313616071429  C 11.1166666666667 16.6713169642857  11.5222222222222 16.9391741071429  11.9666666666667 17.2349330357143  C 12.4111111111111 17.5306919642857  13.0055555555556 17.7985491071429  13.75 18.0385044642857  C 14.4944444444444 18.2784598214286  15.2444444444444 18.3984375  16 18.3984375  C 16.7555555555556 18.3984375  17.5055555555556 18.2784598214286  18.25 18.0385044642857  C 18.9944444444444 17.7985491071429  19.5888888888889 17.5306919642857  20.0333333333333 17.2349330357143  C 20.4777777777778 16.9391741071429  20.8833333333333 16.6713169642857  21.25 16.4313616071429  C 21.6166666666667 16.19140625  21.8555555555556 16.0714285714286  21.9666666666667 16.0714285714286  C 22.6444444444444 16.0714285714286  23.2638888888889 16.1830357142857  23.825 16.40625  C 24.3861111111111 16.6294642857143  24.8611111111111 16.9280133928571  25.25 17.3018973214286  C 25.6388888888889 17.67578125  25.9833333333333 18.1277901785714  26.2833333333333 18.6579241071429  C 26.5833333333333 19.1880580357143  26.8222222222222 19.7321428571429  27 20.2901785714286  C 27.1777777777778 20.8482142857143  27.325 21.4536830357143  27.4416666666667 22.1065848214286  C 27.5583333333333 22.7594866071429  27.6361111111111 23.3677455357143  27.675 23.9313616071429  Z M 9.41666666666667 1.25558035714286  C 10.25 2.09263392857143  10.6666666666667 3.10267857142857  10.6666666666667 4.28571428571429  C 10.6666666666667 5.46875  10.25 6.47879464285714  9.41666666666667 7.31584821428571  C 8.58333333333333 8.15290178571429  7.57777777777778 8.57142857142857  6.4 8.57142857142857  C 5.22222222222222 8.57142857142857  4.21666666666667 8.15290178571429  3.38333333333333 7.31584821428571  C 2.55 6.47879464285714  2.13333333333333 5.46875  2.13333333333333 4.28571428571429  C 2.13333333333333 3.10267857142857  2.55 2.09263392857143  3.38333333333333 1.25558035714286  C 4.21666666666667 0.418526785714287  5.22222222222222 0  6.4 0  C 7.57777777777778 0  8.58333333333333 0.418526785714287  9.41666666666667 1.25558035714286  Z M 20.525 6.16908482142857  C 21.775 7.42466517857143  22.4 8.93973214285714  22.4 10.7142857142857  C 22.4 12.4888392857143  21.775 14.00390625  20.525 15.2594866071429  C 19.275 16.5150669642857  17.7666666666667 17.1428571428571  16 17.1428571428571  C 14.2333333333333 17.1428571428571  12.725 16.5150669642857  11.475 15.2594866071429  C 10.225 14.00390625  9.6 12.4888392857143  9.6 10.7142857142857  C 9.6 8.93973214285714  10.225 7.42466517857143  11.475 6.16908482142857  C 12.725 4.91350446428571  14.2333333333333 4.28571428571429  16 4.28571428571429  C 17.7666666666667 4.28571428571429  19.275 4.91350446428571  20.525 6.16908482142857  Z M 29.9333333333333 8.57142857142857  C 31.3111111111111 8.57142857142857  32 10.5412946428571  32 14.4810267857143  C 32 15.3515625  31.6888888888889 16.0128348214286  31.0666666666667 16.46484375  C 30.4444444444444 16.9168526785714  29.6777777777778 17.1428571428571  28.7666666666667 17.1428571428571  L 26.5333333333333 17.1428571428571  C 25.3888888888889 15.7700892857143  23.9166666666667 15.0558035714286  22.1166666666667 15  C 23.0166666666667 13.6941964285714  23.4666666666667 12.265625  23.4666666666667 10.7142857142857  C 23.4666666666667 10.390625  23.4388888888889 10.0223214285714  23.3833333333333 9.609375  C 24.1166666666667 9.86607142857143  24.8555555555556 9.99441964285714  25.6 9.99441964285714  C 26.2555555555556 9.99441964285714  26.9166666666667 9.87444196428571  27.5833333333333 9.63448660714286  C 28.25 9.39453125  28.7916666666667 9.15736607142857  29.2083333333333 8.92299107142857  C 29.625 8.68861607142857  29.8666666666667 8.57142857142857  29.9333333333333 8.57142857142857  Z M 28.6166666666667 1.25558035714286  C 29.45 2.09263392857143  29.8666666666667 3.10267857142857  29.8666666666667 4.28571428571429  C 29.8666666666667 5.46875  29.45 6.47879464285714  28.6166666666667 7.31584821428571  C 27.7833333333333 8.15290178571429  26.7777777777778 8.57142857142857  25.6 8.57142857142857  C 24.4222222222222 8.57142857142857  23.4166666666667 8.15290178571429  22.5833333333333 7.31584821428571  C 21.75 6.47879464285714  21.3333333333333 5.46875  21.3333333333333 4.28571428571429  C 21.3333333333333 3.10267857142857  21.75 2.09263392857143  22.5833333333333 1.25558035714286  C 23.4166666666667 0.418526785714287  24.4222222222222 0  25.6 0  C 26.7777777777778 0  27.7833333333333 0.418526785714287  28.6166666666667 1.25558035714286  Z " fill-rule="nonzero" fill="#7f7f7f" stroke="none" transform="matrix(1 0 0 1 370 2313 )" />
  </g>
</svg>