<?xml version="1.0" encoding="utf-8"?>
<svg version="1.1" xmlns:xlink="http://www.w3.org/1999/xlink" width="16px" height="16px" xmlns="http://www.w3.org/2000/svg">
  <defs>
    <mask fill="white" id="clip93">
      <path d="M 7.5 0  C 11.7 0  15 3.3  15 7.5  C 15 11.7  11.7 15  7.5 15  C 3.29999999999999 15  0 11.7  0 7.5  C 0 3.3  3.29999999999999 0  7.5 0  Z " fill-rule="evenodd" />
    </mask>
  </defs>
  <g transform="matrix(1 0 0 1 -653 -2410 )">
    <path d="M 7.5 0  C 11.7 0  15 3.3  15 7.5  C 15 11.7  11.7 15  7.5 15  C 3.29999999999999 15  0 11.7  0 7.5  C 0 3.3  3.29999999999999 0  7.5 0  Z " fill-rule="nonzero" fill="#ffffff" stroke="none" transform="matrix(1 0 0 1 653 2410 )" />
    <path d="M 7.5 0  C 11.7 0  15 3.3  15 7.5  C 15 11.7  11.7 15  7.5 15  C 3.29999999999999 15  0 11.7  0 7.5  C 0 3.3  3.29999999999999 0  7.5 0  Z " stroke-width="2" stroke="#797979" fill="none" transform="matrix(1 0 0 1 653 2410 )" mask="url(#clip93)" />
    <path d="M 2.20930232558139 2.17054263565892  L 12.796875 12.796875  M 2.20930232558139 12.796875  L 12.796875 2.17054263565892  " stroke-width="1" stroke="#797979" fill="none" transform="matrix(1 0 0 1 653 2410 )" mask="url(#clip93)" />
  </g>
</svg>