<?xml version="1.0" encoding="utf-8"?>
<svg version="1.1" xmlns:xlink="http://www.w3.org/1999/xlink" width="10px" height="11px" xmlns="http://www.w3.org/2000/svg">
  <g transform="matrix(1 0 0 1 -812 -1529 )">
    <path d="M 3.57244318181818 4.189453125  C 3.61505681818182 4.232421875  3.63636363636364 4.28732638888889  3.63636363636364 4.35416666666667  L 3.63636363636364 8.47916666666667  C 3.63636363636364 8.54600694444444  3.61505681818182 8.60091145833333  3.57244318181818 8.64388020833333  C 3.52982954545455 8.68684895833333  3.47537878787879 8.70833333333333  3.40909090909091 8.70833333333333  L 2.95454545454545 8.70833333333333  C 2.88825757575758 8.70833333333333  2.83380681818182 8.68684895833333  2.79119318181818 8.64388020833333  C 2.74857954545455 8.60091145833333  2.72727272727273 8.54600694444444  2.72727272727273 8.47916666666667  L 2.72727272727273 4.35416666666667  C 2.72727272727273 4.28732638888889  2.74857954545455 4.232421875  2.79119318181818 4.189453125  C 2.83380681818182 4.146484375  2.88825757575758 4.125  2.95454545454545 4.125  L 3.40909090909091 4.125  C 3.47537878787879 4.125  3.52982954545455 4.146484375  3.57244318181818 4.189453125  Z M 5.390625 4.189453125  C 5.43323863636364 4.232421875  5.45454545454545 4.28732638888889  5.45454545454545 4.35416666666667  L 5.45454545454545 8.47916666666667  C 5.45454545454545 8.54600694444444  5.43323863636364 8.60091145833333  5.390625 8.64388020833333  C 5.34801136363636 8.68684895833333  5.29356060606061 8.70833333333333  5.22727272727273 8.70833333333333  L 4.77272727272727 8.70833333333333  C 4.70643939393939 8.70833333333333  4.65198863636364 8.68684895833333  4.609375 8.64388020833333  C 4.56676136363636 8.60091145833333  4.54545454545455 8.54600694444444  4.54545454545455 8.47916666666667  L 4.54545454545455 4.35416666666667  C 4.54545454545455 4.28732638888889  4.56676136363636 4.232421875  4.609375 4.189453125  C 4.65198863636364 4.146484375  4.70643939393939 4.125  4.77272727272727 4.125  L 5.22727272727273 4.125  C 5.29356060606061 4.125  5.34801136363636 4.146484375  5.390625 4.189453125  Z M 7.20880681818182 4.189453125  C 7.25142045454545 4.232421875  7.27272727272727 4.28732638888889  7.27272727272727 4.35416666666667  L 7.27272727272727 8.47916666666667  C 7.27272727272727 8.54600694444444  7.25142045454545 8.60091145833333  7.20880681818182 8.64388020833333  C 7.16619318181818 8.68684895833333  7.11174242424242 8.70833333333333  7.04545454545455 8.70833333333333  L 6.59090909090909 8.70833333333333  C 6.52462121212121 8.70833333333333  6.47017045454545 8.68684895833333  6.42755681818182 8.64388020833333  C 6.38494318181818 8.60091145833333  6.36363636363636 8.54600694444444  6.36363636363636 8.47916666666667  L 6.36363636363636 4.35416666666667  C 6.36363636363636 4.28732638888889  6.38494318181818 4.232421875  6.42755681818182 4.189453125  C 6.47017045454545 4.146484375  6.52462121212121 4.125  6.59090909090909 4.125  L 7.04545454545455 4.125  C 7.11174242424242 4.125  7.16619318181818 4.146484375  7.20880681818182 4.189453125  Z M 8.13210227272727 9.8291015625  C 8.16524621212121 9.74077690972222  8.18181818181818 9.64409722222222  8.18181818181818 9.5390625  L 8.18181818181818 2.75  L 1.81818181818182 2.75  L 1.81818181818182 9.5390625  C 1.81818181818182 9.64409722222222  1.83475378787879 9.74077690972222  1.86789772727273 9.8291015625  C 1.90104166666667 9.91742621527778  1.93536931818182 9.98187934027778  1.97088068181818 10.0224609375  C 2.00639204545455 10.0630425347222  2.03125 10.0833333333333  2.04545454545455 10.0833333333333  L 7.95454545454545 10.0833333333333  C 7.96875 10.0833333333333  7.99360795454545 10.0630425347222  8.02911931818182 10.0224609375  C 8.06463068181818 9.98187934027778  8.09895833333334 9.91742621527778  8.13210227272727 9.8291015625  Z M 3.75710227272727 0.995442708333333  L 3.40909090909091 1.83333333333333  L 6.59090909090909 1.83333333333333  L 6.25 0.995442708333333  C 6.21685606060606 0.952473958333333  6.17660984848485 0.926215277777777  6.12926136363636 0.916666666666667  L 3.87784090909091 0.916666666666667  C 3.83049242424242 0.926215277777777  3.79024621212121 0.952473958333333  3.75710227272727 0.995442708333333  Z M 9.93607954545455 1.89778645833333  C 9.97869318181818 1.94075520833333  10 1.99565972222222  10 2.0625  L 10 2.52083333333333  C 10 2.58767361111111  9.97869318181818 2.642578125  9.93607954545455 2.685546875  C 9.89346590909091 2.728515625  9.83901515151515 2.75  9.77272727272727 2.75  L 9.09090909090909 2.75  L 9.09090909090909 9.5390625  C 9.09090909090909 9.93532986111111  8.97964015151515 10.2778862847222  8.75710227272727 10.5667317708333  C 8.53456439393939 10.8555772569444  8.26704545454545 11  7.95454545454545 11  L 2.04545454545455 11  C 1.73295454545455 11  1.46543560606061 10.8603515625  1.24289772727273 10.5810546875  C 1.02035984848485 10.3017578125  0.909090909090909 9.96397569444444  0.909090909090909 9.56770833333333  L 0.909090909090909 2.75  L 0.227272727272727 2.75  C 0.160984848484848 2.75  0.106534090909091 2.728515625  0.0639204545454545 2.685546875  C 0.0213068181818182 2.642578125  0 2.58767361111111  0 2.52083333333333  L 0 2.0625  C 0 1.99565972222222  0.0213068181818182 1.94075520833333  0.0639204545454545 1.89778645833333  C 0.106534090909091 1.85481770833333  0.160984848484848 1.83333333333333  0.227272727272727 1.83333333333333  L 2.421875 1.83333333333333  L 2.91903409090909 0.637369791666667  C 2.99005681818182 0.46072048611111  3.11789772727273 0.31032986111111  3.30255681818182 0.186197916666667  C 3.48721590909091 0.0620659722222215  3.67424242424242 0  3.86363636363636 0  L 6.13636363636364 0  C 6.32575757575758 0  6.51278409090909 0.0620659722222215  6.69744318181818 0.186197916666667  C 6.88210227272727 0.31032986111111  7.00994318181818 0.46072048611111  7.08096590909091 0.637369791666667  L 7.578125 1.83333333333333  L 9.77272727272727 1.83333333333333  C 9.83901515151515 1.83333333333333  9.89346590909091 1.85481770833333  9.93607954545455 1.89778645833333  Z " fill-rule="nonzero" fill="#7f7f7f" stroke="none" transform="matrix(1 0 0 1 812 1529 )" />
  </g>
</svg>