<?xml version="1.0" encoding="utf-8"?>
<svg version="1.1" xmlns:xlink="http://www.w3.org/1999/xlink" width="30px" height="30px" xmlns="http://www.w3.org/2000/svg">
  <g transform="matrix(1 0 0 1 -1715 -1026 )">
    <path d="M 1716 1031  A 4 4 0 0 1 1720 1027 L 1740 1027  A 4 4 0 0 1 1744 1031 L 1744 1051  A 4 4 0 0 1 1740 1055 L 1720 1055  A 4 4 0 0 1 1716 1051 L 1716 1031  Z " fill-rule="nonzero" fill="#ffffff" stroke="none" />
    <path d="M 1715.5 1031  A 4.5 4.5 0 0 1 1720 1026.5 L 1740 1026.5  A 4.5 4.5 0 0 1 1744.5 1031 L 1744.5 1051  A 4.5 4.5 0 0 1 1740 1055.5 L 1720 1055.5  A 4.5 4.5 0 0 1 1715.5 1051 L 1715.5 1031  Z " stroke-width="1" stroke-dasharray="9,4" stroke="#60b3ff" fill="none" stroke-dashoffset="0.5" />
  </g>
</svg>