<?xml version="1.0" encoding="utf-8"?>
<svg version="1.1" xmlns:xlink="http://www.w3.org/1999/xlink" width="250px" height="80px" xmlns="http://www.w3.org/2000/svg">
  <g transform="matrix(1 0 0 1 -992 -245 )">
    <path d="M 993 249  A 3 3 0 0 1 996 246 L 1238 246  A 3 3 0 0 1 1241 249 L 1241 321  A 3 3 0 0 1 1238 324 L 996 324  A 3 3 0 0 1 993 321 L 993 249  Z " fill-rule="nonzero" fill="#ff3399" stroke="none" fill-opacity="0.0980392156862745" />
    <path d="M 992.5 249  A 3.5 3.5 0 0 1 996 245.5 L 1238 245.5  A 3.5 3.5 0 0 1 1241.5 249 L 1241.5 321  A 3.5 3.5 0 0 1 1238 324.5 L 996 324.5  A 3.5 3.5 0 0 1 992.5 321 L 992.5 249  Z " stroke-width="1" stroke-dasharray="9,4" stroke="#ff3399" fill="none" stroke-dashoffset="0.5" />
  </g>
</svg>