<?xml version="1.0" encoding="utf-8"?>
<svg version="1.1" xmlns:xlink="http://www.w3.org/1999/xlink" width="200px" height="63px" xmlns="http://www.w3.org/2000/svg">
  <g transform="matrix(1 0 0 1 -1583 -2268 )">
    <path d="M 1584 2272  A 3 3 0 0 1 1587 2269 L 1779 2269  A 3 3 0 0 1 1782 2272 L 1782 2327  A 3 3 0 0 1 1779 2330 L 1587 2330  A 3 3 0 0 1 1584 2327 L 1584 2272  Z " fill-rule="nonzero" fill="#ff3399" stroke="none" fill-opacity="0.0980392156862745" />
    <path d="M 1583.5 2272  A 3.5 3.5 0 0 1 1587 2268.5 L 1779 2268.5  A 3.5 3.5 0 0 1 1782.5 2272 L 1782.5 2327  A 3.5 3.5 0 0 1 1779 2330.5 L 1587 2330.5  A 3.5 3.5 0 0 1 1583.5 2327 L 1583.5 2272  Z " stroke-width="1" stroke-dasharray="9,4" stroke="#ff3399" fill="none" stroke-dashoffset="0.5" />
  </g>
</svg>