<?xml version="1.0" encoding="utf-8"?>
<svg version="1.1" xmlns:xlink="http://www.w3.org/1999/xlink" width="32px" height="32px" xmlns="http://www.w3.org/2000/svg">
  <g transform="matrix(1 0 0 1 -669 -802 )">
    <path d="M 685 802.5  C 693.68 802.5  700.5 809.32  700.5 818  C 700.5 826.68  693.68 833.5  685 833.5  C 676.32 833.5  669.5 826.68  669.5 818  C 669.5 809.32  676.32 802.5  685 802.5  Z " fill-rule="nonzero" fill="#ffffff" stroke="none" fill-opacity="0" />
    <path d="M 685 802.5  C 693.68 802.5  700.5 809.32  700.5 818  C 700.5 826.68  693.68 833.5  685 833.5  C 676.32 833.5  669.5 826.68  669.5 818  C 669.5 809.32  676.32 802.5  685 802.5  Z " stroke-width="1" stroke="#000000" fill="none" stroke-opacity="0.149019607843137" />
  </g>
</svg>