<?xml version="1.0" encoding="utf-8"?>
<svg version="1.1" xmlns:xlink="http://www.w3.org/1999/xlink" width="32px" height="32px" xmlns="http://www.w3.org/2000/svg">
  <g transform="matrix(1 0 0 1 -581 -1367 )">
    <path d="M 597 1367.5  C 605.68 1367.5  612.5 1374.32  612.5 1383  C 612.5 1391.68  605.68 1398.5  597 1398.5  C 588.32 1398.5  581.5 1391.68  581.5 1383  C 581.5 1374.32  588.32 1367.5  597 1367.5  Z " fill-rule="nonzero" fill="#1890ff" stroke="none" />
    <path d="M 597 1367.5  C 605.68 1367.5  612.5 1374.32  612.5 1383  C 612.5 1391.68  605.68 1398.5  597 1398.5  C 588.32 1398.5  581.5 1391.68  581.5 1383  C 581.5 1374.32  588.32 1367.5  597 1367.5  Z " stroke-width="1" stroke="#000000" fill="none" stroke-opacity="0.149019607843137" />
  </g>
</svg>