<?xml version="1.0" encoding="utf-8"?>
<svg version="1.1" xmlns:xlink="http://www.w3.org/1999/xlink" width="25px" height="25px" xmlns="http://www.w3.org/2000/svg">
  <g transform="matrix(1 0 0 1 -680 -2425 )">
    <path d="M 692.5 2425.5  C 699.22 2425.5  704.5 2430.78  704.5 2437.5  C 704.5 2444.22  699.22 2449.5  692.5 2449.5  C 685.78 2449.5  680.5 2444.22  680.5 2437.5  C 680.5 2430.78  685.78 2425.5  692.5 2425.5  Z " fill-rule="nonzero" fill="#ffffff" stroke="none" fill-opacity="0" />
    <path d="M 692.5 2425.5  C 699.22 2425.5  704.5 2430.78  704.5 2437.5  C 704.5 2444.22  699.22 2449.5  692.5 2449.5  C 685.78 2449.5  680.5 2444.22  680.5 2437.5  C 680.5 2430.78  685.78 2425.5  692.5 2425.5  Z " stroke-width="1" stroke-dasharray="3,1" stroke="#1890ff" fill="none" stroke-dashoffset="0.5" />
  </g>
</svg>