<?xml version="1.0" encoding="utf-8"?>
<svg version="1.1" xmlns:xlink="http://www.w3.org/1999/xlink" width="148px" height="30px" xmlns="http://www.w3.org/2000/svg">
  <g transform="matrix(1 0 0 1 -1130 -80 )">
    <path d="M 1131 84  A 3 3 0 0 1 1134 81 L 1274 81  A 3 3 0 0 1 1277 84 L 1277 106  A 3 3 0 0 1 1274 109 L 1134 109  A 3 3 0 0 1 1131 106 L 1131 84  Z " fill-rule="nonzero" fill="#ff3399" stroke="none" fill-opacity="0.0980392156862745" />
    <path d="M 1130.5 84  A 3.5 3.5 0 0 1 1134 80.5 L 1274 80.5  A 3.5 3.5 0 0 1 1277.5 84 L 1277.5 106  A 3.5 3.5 0 0 1 1274 109.5 L 1134 109.5  A 3.5 3.5 0 0 1 1130.5 106 L 1130.5 84  Z " stroke-width="1" stroke-dasharray="9,4" stroke="#ff3399" fill="none" stroke-dashoffset="0.5" />
  </g>
</svg>