<?xml version="1.0" encoding="utf-8"?>
<svg version="1.1" xmlns:xlink="http://www.w3.org/1999/xlink" width="187px" height="30px" xmlns="http://www.w3.org/2000/svg">
  <g transform="matrix(1 0 0 1 -50 -54 )">
    <path d="M 51 58  A 3 3 0 0 1 54 55 L 233 55  A 3 3 0 0 1 236 58 L 236 80  A 3 3 0 0 1 233 83 L 54 83  A 3 3 0 0 1 51 80 L 51 58  Z " fill-rule="nonzero" fill="#ff3399" stroke="none" fill-opacity="0.0980392156862745" />
    <path d="M 50.5 58  A 3.5 3.5 0 0 1 54 54.5 L 233 54.5  A 3.5 3.5 0 0 1 236.5 58 L 236.5 80  A 3.5 3.5 0 0 1 233 83.5 L 54 83.5  A 3.5 3.5 0 0 1 50.5 80 L 50.5 58  Z " stroke-width="1" stroke-dasharray="9,4" stroke="#ff3399" fill="none" stroke-dashoffset="0.5" />
  </g>
</svg>