<?xml version="1.0" encoding="utf-8"?>
<svg version="1.1" xmlns:xlink="http://www.w3.org/1999/xlink" width="12px" height="12px" viewBox="257 2191.5  12 12" xmlns="http://www.w3.org/2000/svg">
  <path d="M 263 2191.5  C 266.36 2191.5  269 2194.14  269 2197.5  C 269 2200.86  266.36 2203.5  263 2203.5  C 259.64 2203.5  257 2200.86  257 2197.5  C 257 2194.14  259.64 2191.5  263 2191.5  Z " fill-rule="nonzero" fill="#ffffff" stroke="none" />
  <path d="M 263 2192  C 266.08 2192  268.5 2194.42  268.5 2197.5  C 268.5 2200.58  266.08 2203  263 2203  C 259.92 2203  257.5 2200.58  257.5 2197.5  C 257.5 2194.42  259.92 2192  263 2192  Z " stroke-width="1" stroke="#797979" fill="none" />
  <path d="M 263 2200.5  C 261.32 2200.5  260 2199.18  260 2197.5  C 260 2195.82  261.32 2194.5  263 2194.5  C 264.68 2194.5  266 2195.82  266 2197.5  C 266 2199.18  264.68 2200.5  263 2200.5  " fill-rule="nonzero" fill="#797979" stroke="none" />
</svg>