<?xml version="1.0" encoding="utf-8"?>
<svg version="1.1" xmlns:xlink="http://www.w3.org/1999/xlink" width="12px" height="12px" viewBox="257 2217.5  12 12" xmlns="http://www.w3.org/2000/svg">
  <path d="M 263 2217.5  C 266.36 2217.5  269 2220.14  269 2223.5  C 269 2226.86  266.36 2229.5  263 2229.5  C 259.64 2229.5  257 2226.86  257 2223.5  C 257 2220.14  259.64 2217.5  263 2217.5  Z " fill-rule="nonzero" fill="#ffffff" stroke="none" />
  <path d="M 263 2218  C 266.08 2218  268.5 2220.42  268.5 2223.5  C 268.5 2226.58  266.08 2229  263 2229  C 259.92 2229  257.5 2226.58  257.5 2223.5  C 257.5 2220.42  259.92 2218  263 2218  Z " stroke-width="1" stroke="#797979" fill="none" />
  <path d="M 263 2226.5  C 261.32 2226.5  260 2225.18  260 2223.5  C 260 2221.82  261.32 2220.5  263 2220.5  C 264.68 2220.5  266 2221.82  266 2223.5  C 266 2225.18  264.68 2226.5  263 2226.5  " fill-rule="nonzero" fill="#797979" stroke="none" />
</svg>