<?xml version="1.0" encoding="utf-8"?>
<svg version="1.1" xmlns:xlink="http://www.w3.org/1999/xlink" width="12px" height="12px" viewBox="257 2244.5  12 12" xmlns="http://www.w3.org/2000/svg">
  <path d="M 263 2244.5  C 266.36 2244.5  269 2247.14  269 2250.5  C 269 2253.86  266.36 2256.5  263 2256.5  C 259.64 2256.5  257 2253.86  257 2250.5  C 257 2247.14  259.64 2244.5  263 2244.5  Z " fill-rule="nonzero" fill="#ffffff" stroke="none" />
  <path d="M 263 2245  C 266.08 2245  268.5 2247.42  268.5 2250.5  C 268.5 2253.58  266.08 2256  263 2256  C 259.92 2256  257.5 2253.58  257.5 2250.5  C 257.5 2247.42  259.92 2245  263 2245  Z " stroke-width="1" stroke="#797979" fill="none" />
  <path d="M 263 2253.5  C 261.32 2253.5  260 2252.18  260 2250.5  C 260 2248.82  261.32 2247.5  263 2247.5  C 264.68 2247.5  266 2248.82  266 2250.5  C 266 2252.18  264.68 2253.5  263 2253.5  " fill-rule="nonzero" fill="#797979" stroke="none" />
</svg>