<?xml version="1.0" encoding="utf-8"?>
<svg version="1.1" xmlns:xlink="http://www.w3.org/1999/xlink" width="12px" height="12px" viewBox="564 2351  12 12" xmlns="http://www.w3.org/2000/svg">
  <path d="M 570 2351  C 573.36 2351  576 2353.64  576 2357  C 576 2360.36  573.36 2363  570 2363  C 566.64 2363  564 2360.36  564 2357  C 564 2353.64  566.64 2351  570 2351  Z " fill-rule="nonzero" fill="#ffffff" stroke="none" />
  <path d="M 570 2351.5  C 573.08 2351.5  575.5 2353.92  575.5 2357  C 575.5 2360.08  573.08 2362.5  570 2362.5  C 566.92 2362.5  564.5 2360.08  564.5 2357  C 564.5 2353.92  566.92 2351.5  570 2351.5  Z " stroke-width="1" stroke="#797979" fill="none" />
  <path d="M 570 2360  C 568.32 2360  567 2358.68  567 2357  C 567 2355.32  568.32 2354  570 2354  C 571.68 2354  573 2355.32  573 2357  C 573 2358.68  571.68 2360  570 2360  " fill-rule="nonzero" fill="#797979" stroke="none" />
</svg>