<?xml version="1.0" encoding="utf-8"?>
<svg version="1.1" xmlns:xlink="http://www.w3.org/1999/xlink" width="203px" height="40px" xmlns="http://www.w3.org/2000/svg">
  <g transform="matrix(1 0 0 1 -1733 -5097 )">
    <path d="M 1734 5101  A 3 3 0 0 1 1737 5098 L 1932 5098  A 3 3 0 0 1 1935 5101 L 1935 5133  A 3 3 0 0 1 1932 5136 L 1737 5136  A 3 3 0 0 1 1734 5133 L 1734 5101  Z " fill-rule="nonzero" fill="#ff3399" stroke="none" fill-opacity="0.0980392156862745" />
    <path d="M 1733.5 5101  A 3.5 3.5 0 0 1 1737 5097.5 L 1932 5097.5  A 3.5 3.5 0 0 1 1935.5 5101 L 1935.5 5133  A 3.5 3.5 0 0 1 1932 5136.5 L 1737 5136.5  A 3.5 3.5 0 0 1 1733.5 5133 L 1733.5 5101  Z " stroke-width="1" stroke-dasharray="9,4" stroke="#ff3399" fill="none" stroke-dashoffset="0.5" />
  </g>
</svg>