<?xml version="1.0" encoding="utf-8"?>
<svg version="1.1" xmlns:xlink="http://www.w3.org/1999/xlink" width="10px" height="10px" xmlns="http://www.w3.org/2000/svg">
  <g transform="matrix(1 0 0 1 -430 -6853 )">
    <path d="M 9.80113636363636 3.83522727272727  C 9.93371212121212 3.96780303030303  10 4.12878787878788  10 4.31818181818182  L 10 5.68181818181818  C 10 5.87121212121212  9.93371212121212 6.03219696969697  9.80113636363636 6.16477272727273  C 9.66856060606061 6.29734848484848  9.50757575757576 6.36363636363636  9.31818181818182 6.36363636363636  L 6.36363636363636 6.36363636363636  L 6.36363636363636 9.31818181818182  C 6.36363636363636 9.50757575757576  6.29734848484849 9.66856060606061  6.16477272727273 9.80113636363636  C 6.03219696969697 9.93371212121212  5.87121212121212 10  5.68181818181818 10  L 4.31818181818182 10  C 4.12878787878788 10  3.96780303030303 9.93371212121212  3.83522727272727 9.80113636363636  C 3.70265151515152 9.66856060606061  3.63636363636364 9.50757575757576  3.63636363636364 9.31818181818182  L 3.63636363636364 6.36363636363636  L 0.681818181818182 6.36363636363636  C 0.492424242424242 6.36363636363636  0.331439393939394 6.29734848484848  0.198863636363636 6.16477272727273  C 0.0662878787878788 6.03219696969697  0 5.87121212121212  0 5.68181818181818  L 0 4.31818181818182  C 0 4.12878787878788  0.0662878787878788 3.96780303030303  0.198863636363636 3.83522727272727  C 0.331439393939394 3.70265151515151  0.492424242424242 3.63636363636364  0.681818181818182 3.63636363636364  L 3.63636363636364 3.63636363636364  L 3.63636363636364 0.681818181818182  C 3.63636363636364 0.492424242424242  3.70265151515152 0.331439393939393  3.83522727272727 0.198863636363636  C 3.96780303030303 0.0662878787878785  4.12878787878788 0  4.31818181818182 0  L 5.68181818181818 0  C 5.87121212121212 0  6.03219696969697 0.0662878787878785  6.16477272727273 0.198863636363636  C 6.29734848484849 0.331439393939393  6.36363636363636 0.492424242424242  6.36363636363636 0.681818181818182  L 6.36363636363636 3.63636363636364  L 9.31818181818182 3.63636363636364  C 9.50757575757576 3.63636363636364  9.66856060606061 3.70265151515151  9.80113636363636 3.83522727272727  Z " fill-rule="nonzero" fill="#008fe0" stroke="none" transform="matrix(1 0 0 1 430 6853 )" />
  </g>
</svg>