<?xml version="1.0" encoding="utf-8"?>
<svg version="1.1" xmlns:xlink="http://www.w3.org/1999/xlink" width="8px" height="6px" xmlns="http://www.w3.org/2000/svg">
  <g transform="matrix(1 0 0 1 -1948 -5233 )">
    <path d="M 7.8515625 0.197916666666667  C 7.95052083333333 0.32986111111111  8 0.48611111111111  8 0.666666666666667  C 8 0.847222222222222  7.95052083333333 1.00347222222222  7.8515625 1.13541666666667  L 4.3515625 5.80208333333333  C 4.25260416666667 5.93402777777778  4.13541666666667 6  4 6  C 3.86458333333333 6  3.74739583333333 5.93402777777778  3.6484375 5.80208333333333  L 0.1484375 1.13541666666667  C 0.0494791666666667 1.00347222222222  0 0.847222222222222  0 0.666666666666667  C 0 0.48611111111111  0.0494791666666667 0.32986111111111  0.1484375 0.197916666666667  C 0.247395833333333 0.0659722222222214  0.364583333333333 0  0.5 0  L 7.5 0  C 7.63541666666667 0  7.75260416666667 0.0659722222222214  7.8515625 0.197916666666667  Z " fill-rule="nonzero" fill="#d7d7d7" stroke="none" transform="matrix(1 0 0 1 1948 5233 )" />
  </g>
</svg>