<?xml version="1.0" encoding="utf-8"?>
<svg version="1.1" xmlns:xlink="http://www.w3.org/1999/xlink" width="120px" height="68px" xmlns="http://www.w3.org/2000/svg">
  <g transform="matrix(1 0 0 1 -990 -243 )">
    <path d="M 991 247  A 3 3 0 0 1 994 244 L 1106 244  A 3 3 0 0 1 1109 247 L 1109 307  A 3 3 0 0 1 1106 310 L 994 310  A 3 3 0 0 1 991 307 L 991 247  Z " fill-rule="nonzero" fill="#ff3399" stroke="none" fill-opacity="0.0980392156862745" />
    <path d="M 990.5 247  A 3.5 3.5 0 0 1 994 243.5 L 1106 243.5  A 3.5 3.5 0 0 1 1109.5 247 L 1109.5 307  A 3.5 3.5 0 0 1 1106 310.5 L 994 310.5  A 3.5 3.5 0 0 1 990.5 307 L 990.5 247  Z " stroke-width="1" stroke-dasharray="9,4" stroke="#ff3399" fill="none" stroke-dashoffset="0.5" />
  </g>
</svg>