<?xml version="1.0" encoding="utf-8"?>
<svg version="1.1" xmlns:xlink="http://www.w3.org/1999/xlink" width="20px" height="20px" xmlns="http://www.w3.org/2000/svg">
  <g transform="matrix(1 0 0 1 -2035 -2482 )">
    <path d="M 18.9291689905187 0.122630992196209  C 19.1894404164343 -0.0334448160535139  19.4422755158952 -0.0260126347082901  19.6876742889013 0.144927536231885  C 19.9330730619074 0.323299888517279  20.0334634690463 0.561129691564473  19.9888455103179 0.858416945373468  L 17.1332961517011 17.9821627647715  C 17.0961145194274 18.197696023783  16.9771332961517 18.3649201040505  16.776352481874 18.4838350055741  C 16.6722439115077 18.5432924563359  16.5569808514594 18.5730211817168  16.4305633017289 18.5730211817168  C 16.3487637107269 18.5730211817168  16.2595277932701 18.5544407283538  16.1628555493586 18.5172798216276  L 10.2844394868935 16.1204013377926  L 6.96040156162856 19.7658862876254  C 6.82654768544339 19.9219620958751  6.6517940137572 20  6.43614054656999 20  C 6.33203197620376 20  6.24651422197434 19.9851356373096  6.17958728388176 19.9554069119287  C 6.03829708124187 19.9033816425121  5.9267521844209 19.8160535117057  5.84495259341885 19.6934225195095  C 5.76315300241681 19.5707915273133  5.72225320691578 19.4351542177629  5.72225320691578 19.2865105908584  L 5.72225320691578 14.247491638796  L 0.457334076965979 12.0958751393534  C 0.182189998140918 11.9918246005203  0.0334634690462911 11.7874396135266  0.011154489682097 11.4827201783724  C -0.011154489682097 11.1928651059086  0.107826733593605 10.9736157562245  0.368098159509202 10.82497212932  L 18.9291689905187 0.122630992196209  Z M 10.3848298940323 14.6153846153846  L 15.8728388176241 16.8561872909699  L 18.3379810373675 2.10702341137124  L 2.34244283324038 11.3266443701226  L 6.09035136642499 12.8539576365663  L 15.7166759620747 5.73021181716834  L 10.3848298940323 14.6153846153846  Z " fill-rule="nonzero" fill="#7f7f7f" stroke="none" transform="matrix(1 0 0 1 2035 2482 )" />
  </g>
</svg>