<?xml version="1.0" encoding="utf-8"?>
<svg version="1.1" xmlns:xlink="http://www.w3.org/1999/xlink" width="21px" height="18px" xmlns="http://www.w3.org/2000/svg">
  <g transform="matrix(1 0 0 1 -2107 -2483 )">
    <path d="M 20.37890625 8.13375  C 20.79296875 9.13875  21 10.3875  21 11.88  C 21 13.125  20.50390625 14.81625  19.51171875 16.95375  C 19.48828125 17.00625  19.447265625 17.09625  19.388671875 17.22375  C 19.330078125 17.35125  19.27734375 17.46375  19.23046875 17.56125  C 19.18359375 17.65875  19.1328125 17.74125  19.078125 17.80875  C 18.984375 17.93625  18.875 18  18.75 18  C 18.6328125 18  18.541015625 17.9625  18.474609375 17.8875  C 18.408203125 17.8125  18.375 17.71875  18.375 17.60625  C 18.375 17.53875  18.384765625 17.439375  18.404296875 17.308125  C 18.423828125 17.176875  18.43359375 17.08875  18.43359375 17.04375  C 18.47265625 16.53375  18.4921875 16.0725  18.4921875 15.66  C 18.4921875 14.9025  18.423828125 14.22375  18.287109375 13.62375  C 18.150390625 13.02375  17.9609375 12.504375  17.71875 12.065625  C 17.4765625 11.626875  17.1640625 11.248125  16.78125 10.929375  C 16.3984375 10.610625  15.986328125 10.35  15.544921875 10.1475  C 15.103515625 9.945  14.583984375 9.785625  13.986328125 9.669375  C 13.388671875 9.553125  12.787109375 9.4725  12.181640625 9.4275  C 11.576171875 9.3825  10.890625 9.36  10.125 9.36  L 7.5 9.36  L 7.5 12.24  C 7.5 12.435  7.42578125 12.60375  7.27734375 12.74625  C 7.12890625 12.88875  6.953125 12.96  6.75 12.96  C 6.546875 12.96  6.37109375 12.88875  6.22265625 12.74625  L 0.22265625 6.98625  C 0.07421875 6.84375  0 6.675  0 6.48  C 0 6.285  0.07421875 6.11625  0.22265625 5.97375  L 6.22265625 0.213749999999999  C 6.37109375 0.0712499999999991  6.546875 0  6.75 0  C 6.953125 0  7.12890625 0.0712499999999991  7.27734375 0.213749999999999  C 7.42578125 0.356249999999998  7.5 0.524999999999998  7.5 0.720000000000001  L 7.5 3.6  L 10.125 3.6  C 15.6953125 3.6  19.11328125 5.11125  20.37890625 8.13375  Z " fill-rule="nonzero" fill="#7f7f7f" stroke="none" transform="matrix(1 0 0 1 2107 2483 )" />
  </g>
</svg>