<?xml version="1.0" encoding="utf-8"?>
<svg version="1.1" xmlns:xlink="http://www.w3.org/1999/xlink" width="22px" height="19px" xmlns="http://www.w3.org/2000/svg">
  <g transform="matrix(1 0 0 1 -1961 -2480 )">
    <path d="M 7.39676339285714 6.79720052083333  C 7.70368303571429 7.1064453125  7.85714285714286 7.47960069444444  7.85714285714286 7.91666666666667  C 7.85714285714286 8.35373263888889  7.70368303571429 8.72688802083333  7.39676339285714 9.0361328125  C 7.08984375 9.34537760416667  6.71949404761905 9.5  6.28571428571429 9.5  C 5.85193452380952 9.5  5.48158482142857 9.34537760416667  5.17466517857143 9.0361328125  C 4.86774553571429 8.72688802083333  4.71428571428571 8.35373263888889  4.71428571428571 7.91666666666667  C 4.71428571428571 7.47960069444444  4.86774553571429 7.1064453125  5.17466517857143 6.79720052083333  C 5.48158482142857 6.48795572916667  5.85193452380952 6.33333333333333  6.28571428571429 6.33333333333333  C 6.71949404761905 6.33333333333333  7.08984375 6.48795572916667  7.39676339285714 6.79720052083333  Z M 12.1110491071429 6.79720052083333  C 12.41796875 7.1064453125  12.5714285714286 7.47960069444444  12.5714285714286 7.91666666666667  C 12.5714285714286 8.35373263888889  12.41796875 8.72688802083333  12.1110491071429 9.0361328125  C 11.8041294642857 9.34537760416667  11.4337797619048 9.5  11 9.5  C 10.5662202380952 9.5  10.1958705357143 9.34537760416667  9.88895089285714 9.0361328125  C 9.58203125 8.72688802083333  9.42857142857143 8.35373263888889  9.42857142857143 7.91666666666667  C 9.42857142857143 7.47960069444444  9.58203125 7.1064453125  9.88895089285714 6.79720052083333  C 10.1958705357143 6.48795572916667  10.5662202380952 6.33333333333333  11 6.33333333333333  C 11.4337797619048 6.33333333333333  11.8041294642857 6.48795572916667  12.1110491071429 6.79720052083333  Z M 16.8253348214286 6.79720052083333  C 17.1322544642857 7.1064453125  17.2857142857143 7.47960069444444  17.2857142857143 7.91666666666667  C 17.2857142857143 8.35373263888889  17.1322544642857 8.72688802083333  16.8253348214286 9.0361328125  C 16.5184151785714 9.34537760416667  16.1480654761905 9.5  15.7142857142857 9.5  C 15.280505952381 9.5  14.91015625 9.34537760416667  14.6032366071429 9.0361328125  C 14.2963169642857 8.72688802083333  14.1428571428571 8.35373263888889  14.1428571428571 7.91666666666667  C 14.1428571428571 7.47960069444444  14.2963169642857 7.1064453125  14.6032366071429 6.79720052083333  C 14.91015625 6.48795572916667  15.280505952381 6.33333333333333  15.7142857142857 6.33333333333333  C 16.1480654761905 6.33333333333333  16.5184151785714 6.48795572916667  16.8253348214286 6.79720052083333  Z M 15.68359375 2.44303385416667  C 14.2308407738095 1.86990017361111  12.6696428571429 1.58333333333333  11 1.58333333333333  C 9.33035714285714 1.58333333333333  7.76915922619048 1.86990017361111  6.31640625 2.44303385416667  C 4.86365327380952 3.01616753472222  3.70963541666667 3.78927951388889  2.85435267857143 4.76236979166667  C 1.99906994047619 5.73546006944444  1.57142857142857 6.78689236111111  1.57142857142857 7.91666666666667  C 1.57142857142857 8.84027777777778  1.86402529761905 9.72059461805556  2.44921875 10.5576171875  C 3.03441220238095 11.3946397569444  3.85900297619048 12.1182725694444  4.92299107142857 12.728515625  L 5.99107142857143 13.3470052083333  L 5.65959821428571 14.5345052083333  C 5.46316964285714 15.2849392361111  5.17671130952381 15.994140625  4.80022321428571 16.662109375  C 6.04427083333333 16.142578125  7.16964285714286 15.4375  8.17633928571428 14.546875  L 8.70424107142857 14.0768229166667  L 9.40401785714286 14.1510416666667  C 9.96875 14.2170138888889  10.500744047619 14.25  11 14.25  C 12.6696428571429 14.25  14.2308407738095 13.9634331597222  15.68359375 13.3902994791667  C 17.1363467261905 12.8171657986111  18.2903645833333 12.0440538194444  19.1456473214286 11.0709635416667  C 20.0009300595238 10.0978732638889  20.4285714285714 9.04644097222222  20.4285714285714 7.91666666666667  C 20.4285714285714 6.78689236111111  20.0009300595238 5.73546006944444  19.1456473214286 4.76236979166667  C 18.2903645833333 3.78927951388889  17.1363467261905 3.01616753472222  15.68359375 2.44303385416667  Z M 21.1283482142857 4.8427734375  C 21.7094494047619 5.81998697916667  22 6.84461805555555  22 7.91666666666667  C 22 9.3515625  21.5089285714286 10.6771918402778  20.5267857142857 11.8935546875  C 19.5446428571429 13.1099175347222  18.2105654761905 14.0706380208333  16.5245535714286 14.7757161458333  C 14.8385416666667 15.4807942708333  12.9970238095238 15.8333333333333  11 15.8333333333333  C 10.4270833333333 15.8333333333333  9.83370535714286 15.8003472222222  9.21986607142857 15.734375  C 7.59933035714286 17.1775173611111  5.71688988095238 18.1753472222222  3.57254464285714 18.7278645833333  C 3.17150297619048 18.8433159722222  2.70498511904762 18.9340277777778  2.17299107142857 19  L 2.11160714285714 19  C 1.98883928571429 19  1.87834821428571 18.9567057291667  1.78013392857143 18.8701171875  C 1.68191964285714 18.7835286458333  1.61644345238095 18.6701388888889  1.58370535714286 18.5299479166667  L 1.58370535714286 18.517578125  C 1.55915178571429 18.4845920138889  1.5571056547619 18.4351128472222  1.57756696428571 18.369140625  C 1.59802827380952 18.3031684027778  1.60621279761905 18.2619357638889  1.60212053571429 18.2454427083333  C 1.59802827380952 18.2289496527778  1.61644345238095 18.1897786458333  1.65736607142857 18.1279296875  L 1.73102678571429 18.0166015625  C 1.73102678571429 18.0166015625  1.75967261904762 17.9815538194444  1.81696428571429 17.9114583333333  C 1.87425595238095 17.8413628472222  1.90699404761905 17.8042534722222  1.91517857142857 17.8001302083333  C 1.97247023809524 17.7341579861111  2.09933035714286 17.5919053819444  2.29575892857143 17.3733723958333  C 2.4921875 17.1548394097222  2.63337053571429 16.9981553819444  2.71930803571429 16.9033203125  C 2.80524553571429 16.8084852430556  2.93210565476191 16.6456163194444  3.09988839285714 16.4147135416667  C 3.26767113095238 16.1838107638889  3.40066964285714 15.9735243055556  3.49888392857143 15.7838541666667  C 3.59709821428571 15.5941840277778  3.70758928571429 15.3509114583333  3.83035714285714 15.0540364583333  C 3.953125 14.7571614583333  4.05952380952381 14.4437934027778  4.14955357142857 14.1139322916667  C 2.86458333333333 13.3799913194444  1.85174851190476 12.4728732638889  1.11104910714286 11.392578125  C 0.370349702380952 10.3122829861111  0 9.15364583333333  0 7.91666666666667  C 0 6.84461805555555  0.290550595238095 5.81998697916667  0.871651785714286 4.8427734375  C 1.45275297619048 3.86555989583333  2.234375 3.02235243055555  3.21651785714286 2.31315104166667  C 4.19866071428571 1.60394965277778  5.36904761904762 1.04112413194444  6.72767857142857 0.624674479166666  C 8.08630952380952 0.208224826388888  9.51041666666667 0  11 0  C 12.4895833333333 0  13.9136904761905 0.208224826388888  15.2723214285714 0.624674479166666  C 16.6309523809524 1.04112413194444  17.8013392857143 1.60394965277778  18.7834821428571 2.31315104166667  C 19.765625 3.02235243055555  20.5472470238095 3.86555989583333  21.1283482142857 4.8427734375  Z " fill-rule="nonzero" fill="#aaaaaa" stroke="none" transform="matrix(1 0 0 1 1961 2480 )" />
  </g>
</svg>