<?xml version="1.0" encoding="utf-8"?>
<svg version="1.1" xmlns:xlink="http://www.w3.org/1999/xlink" width="26px" height="30px" xmlns="http://www.w3.org/2000/svg">
  <g transform="matrix(1 0 0 1 -2023 -1515 )">
    <path d="M 21.6666666666667 8.57142857142857  C 21.6666666666667 10.2120535714286  21.2209201388889 11.7299107142857  20.3294270833333 13.125  C 20.8598090277778 13.28125  21.3648003472222 13.4933035714286  21.8444010416667 13.7611607142857  C 22.3240017361111 14.0290178571429  22.826171875 14.4363839285714  23.3509114583333 14.9832589285714  C 23.8756510416667 15.5301339285714  24.32421875 16.1746651785714  24.6966145833333 16.9168526785714  C 25.0690104166667 17.6590401785714  25.3793402777778 18.6188616071429  25.6276041666667 19.7963169642857  C 25.8758680555556 20.9737723214286  26 22.2935267857143  26 23.7555803571429  C 26 25.4743303571429  25.4357638888889 26.9447544642857  24.3072916666667 28.1668526785714  C 23.1788194444444 29.3889508928571  21.8190104166667 30  20.2278645833333 30  L 5.77213541666667 30  C 4.18098958333333 30  2.82118055555556 29.3889508928571  1.69270833333333 28.1668526785714  C 0.564236111111111 26.9447544642857  0 25.4743303571429  0 23.7555803571429  C 0 22.2935267857143  0.124131944444444 20.9737723214286  0.372395833333333 19.7963169642857  C 0.620659722222222 18.6188616071429  0.930989583333333 17.6590401785714  1.30338541666667 16.9168526785714  C 1.67578125 16.1746651785714  2.12434895833333 15.5301339285714  2.64908854166667 14.9832589285714  C 3.173828125 14.4363839285714  3.67599826388889 14.0290178571429  4.15559895833333 13.7611607142857  C 4.63519965277778 13.4933035714286  5.14019097222222 13.28125  5.67057291666667 13.125  C 4.77907986111111 11.7299107142857  4.33333333333333 10.2120535714286  4.33333333333333 8.57142857142857  C 4.33333333333333 7.41071428571428  4.56184895833333 6.30301339285714  5.01888020833333 5.24832589285714  C 5.47591145833333 4.19363839285714  6.09375 3.28125  6.87239583333333 2.51116071428571  C 7.65104166666667 1.74107142857143  8.57356770833333 1.13002232142857  9.63997395833333 0.678013392857142  C 10.7063802083333 0.226004464285713  11.8263888888889 0  13 0  C 14.1736111111111 0  15.2936197916667 0.226004464285713  16.3600260416667 0.678013392857142  C 17.4264322916667 1.13002232142857  18.3489583333333 1.74107142857143  19.1276041666667 2.51116071428571  C 19.90625 3.28125  20.5240885416667 4.19363839285714  20.9811197916667 5.24832589285714  C 21.4381510416667 6.30301339285714  21.6666666666667 7.41071428571428  21.6666666666667 8.57142857142857  Z M 17.595703125 4.02622767857143  C 16.326171875 2.77064732142857  14.7942708333333 2.14285714285714  13 2.14285714285714  C 11.2057291666667 2.14285714285714  9.673828125 2.77064732142857  8.404296875 4.02622767857143  C 7.134765625 5.28180803571429  6.5 6.796875  6.5 8.57142857142857  C 6.5 10.3459821428571  7.134765625 11.8610491071429  8.404296875 13.1166294642857  C 9.673828125 14.3722098214286  11.2057291666667 15  13 15  C 14.7942708333333 15  16.326171875 14.3722098214286  17.595703125 13.1166294642857  C 18.865234375 11.8610491071429  19.5 10.3459821428571  19.5 8.57142857142857  C 19.5 6.796875  18.865234375 5.28180803571429  17.595703125 4.02622767857143  Z M 5.77213541666667 27.8571428571429  L 20.2278645833333 27.8571428571429  C 21.2209201388889 27.8571428571429  22.0700954861111 27.4581473214286  22.775390625 26.66015625  C 23.4806857638889 25.8621651785714  23.8333333333333 24.8939732142857  23.8333333333333 23.7555803571429  C 23.8333333333333 21.0881696428571  23.3904079861111 18.984375  22.5045572916667 17.4441964285714  C 21.6187065972222 15.9040178571429  20.3463541666667 15.0948660714286  18.6875 15.0167410714286  C 17.0512152777778 16.4341517857143  15.1553819444444 17.1428571428571  13 17.1428571428571  C 10.8446180555556 17.1428571428571  8.94878472222222 16.4341517857143  7.3125 15.0167410714286  C 5.65364583333333 15.0948660714286  4.38129340277778 15.9040178571429  3.49544270833333 17.4441964285714  C 2.60959201388889 18.984375  2.16666666666667 21.0881696428571  2.16666666666667 23.7555803571429  C 2.16666666666667 24.8939732142857  2.51931423611111 25.8621651785714  3.224609375 26.66015625  C 3.92990451388889 27.4581473214286  4.77907986111111 27.8571428571429  5.77213541666667 27.8571428571429  Z " fill-rule="nonzero" fill="#1890ff" stroke="none" transform="matrix(1 0 0 1 2023 1515 )" />
  </g>
</svg>