<?xml version="1.0" encoding="utf-8"?>
<svg version="1.1" xmlns:xlink="http://www.w3.org/1999/xlink" width="46px" height="21px" xmlns="http://www.w3.org/2000/svg">
  <defs>
    <mask fill="white" id="clip100">
      <path d="M 0 16  L 0 7  L 0 5  C 0 2.20000000000005  2.20000000000005 0  5 0  L 7 0  L 25 0  L 27 0  L 41 0  C 43.8 0  46 2.20000000000005  46 5  L 46 16  C 46 18.8  43.8 21  41 21  L 5 21  C 2.20000000000005 21  0 18.8  0 16  Z " fill-rule="evenodd" />
    </mask>
  </defs>
  <g transform="matrix(1 0 0 1 -2250 -1116 )">
    <path d="M 0 16  L 0 7  L 0 5  C 0 2.20000000000005  2.20000000000005 0  5 0  L 7 0  L 25 0  L 27 0  L 41 0  C 43.8 0  46 2.20000000000005  46 5  L 46 16  C 46 18.8  43.8 21  41 21  L 5 21  C 2.20000000000005 21  0 18.8  0 16  Z " fill-rule="nonzero" fill="#ffffff" stroke="none" transform="matrix(1 0 0 1 2250 1116 )" />
    <path d="M 0 16  L 0 7  L 0 5  C 0 2.20000000000005  2.20000000000005 0  5 0  L 7 0  L 25 0  L 27 0  L 41 0  C 43.8 0  46 2.20000000000005  46 5  L 46 16  C 46 18.8  43.8 21  41 21  L 5 21  C 2.20000000000005 21  0 18.8  0 16  Z " stroke-width="2" stroke="#d7d7d7" fill="none" transform="matrix(1 0 0 1 2250 1116 )" mask="url(#clip100)" />
  </g>
</svg>