<?xml version="1.0" encoding="utf-8"?>
<svg version="1.1" xmlns:xlink="http://www.w3.org/1999/xlink" width="25px" height="30px" xmlns="http://www.w3.org/2000/svg">
  <g transform="matrix(1 0 0 1 -1979 -1232 )">
    <path d="M 24.833984375 21.689453125  C 24.9446614583333 22.6725260416667  25 23.7174479166667  25 24.82421875  C 25 26.2434895833333  24.5930989583333 27.4609375  23.779296875 28.4765625  C 22.9654947916667 29.4921875  21.9856770833333 30  20.83984375 30  L 4.16015625 30  C 3.01432291666667 30  2.03450520833333 29.4921875  1.220703125 28.4765625  C 0.406901041666667 27.4609375  0 26.2434895833333  0 24.82421875  C 0 23.7174479166667  0.0553385416666668 22.6725260416667  0.166015625 21.689453125  C 0.276692708333333 20.7063802083333  0.481770833333333 19.716796875  0.78125 18.720703125  C 1.08072916666667 17.724609375  1.46158854166667 16.8717447916667  1.923828125 16.162109375  C 2.38606770833333 15.4524739583333  2.998046875 14.873046875  3.759765625 14.423828125  C 4.521484375 13.974609375  5.39713541666667 13.75  6.38671875 13.75  C 8.09244791666667 15.4166666666667  10.1302083333333 16.25  12.5 16.25  C 14.8697916666667 16.25  16.9075520833333 15.4166666666667  18.61328125 13.75  C 19.6028645833333 13.75  20.478515625 13.974609375  21.240234375 14.423828125  C 22.001953125 14.873046875  22.6139322916667 15.4524739583333  23.076171875 16.162109375  C 23.5384114583333 16.8717447916667  23.9192708333333 17.724609375  24.21875 18.720703125  C 24.5182291666667 19.716796875  24.7233072916667 20.7063802083333  24.833984375 21.689453125  Z M 17.802734375 2.197265625  C 19.267578125 3.662109375  20 5.4296875  20 7.5  C 20 9.5703125  19.267578125 11.337890625  17.802734375 12.802734375  C 16.337890625 14.267578125  14.5703125 15  12.5 15  C 10.4296875 15  8.662109375 14.267578125  7.197265625 12.802734375  C 5.732421875 11.337890625  5 9.5703125  5 7.5  C 5 5.4296875  5.732421875 3.662109375  7.197265625 2.197265625  C 8.662109375 0.732421875  10.4296875 0  12.5 0  C 14.5703125 0  16.337890625 0.732421875  17.802734375 2.197265625  Z " fill-rule="nonzero" fill="#7f7f7f" stroke="none" transform="matrix(1 0 0 1 1979 1232 )" />
  </g>
</svg>