<?xml version="1.0" encoding="utf-8"?>
<svg version="1.1" xmlns:xlink="http://www.w3.org/1999/xlink" width="150px" height="63px" xmlns="http://www.w3.org/2000/svg">
  <g transform="matrix(1 0 0 1 -1883 -626 )">
    <path d="M 1884 630  A 3 3 0 0 1 1887 627 L 2029 627  A 3 3 0 0 1 2032 630 L 2032 685  A 3 3 0 0 1 2029 688 L 1887 688  A 3 3 0 0 1 1884 685 L 1884 630  Z " fill-rule="nonzero" fill="#ff3399" stroke="none" fill-opacity="0.0980392156862745" />
    <path d="M 1883.5 630  A 3.5 3.5 0 0 1 1887 626.5 L 2029 626.5  A 3.5 3.5 0 0 1 2032.5 630 L 2032.5 685  A 3.5 3.5 0 0 1 2029 688.5 L 1887 688.5  A 3.5 3.5 0 0 1 1883.5 685 L 1883.5 630  Z " stroke-width="1" stroke-dasharray="9,4" stroke="#ff3399" fill="none" stroke-dashoffset="0.5" />
  </g>
</svg>