<?xml version="1.0" encoding="utf-8"?>
<svg version="1.1" xmlns:xlink="http://www.w3.org/1999/xlink" width="21px" height="17px" xmlns="http://www.w3.org/2000/svg">
  <g transform="matrix(1 0 0 1 -1350 -3882 )">
    <path d="M 20.37890625 7.681875  C 20.79296875 8.63104166666666  21 9.81041666666667  21 11.22  C 21 12.3958333333333  20.50390625 13.993125  19.51171875 16.011875  C 19.48828125 16.0614583333333  19.447265625 16.1464583333333  19.388671875 16.266875  C 19.330078125 16.3872916666667  19.27734375 16.4935416666667  19.23046875 16.585625  C 19.18359375 16.6777083333333  19.1328125 16.755625  19.078125 16.819375  C 18.984375 16.9397916666667  18.875 17  18.75 17  C 18.6328125 17  18.541015625 16.9645833333333  18.474609375 16.89375  C 18.408203125 16.8229166666667  18.375 16.734375  18.375 16.628125  C 18.375 16.564375  18.384765625 16.4705208333333  18.404296875 16.3465625  C 18.423828125 16.2226041666667  18.43359375 16.139375  18.43359375 16.096875  C 18.47265625 15.6152083333333  18.4921875 15.1795833333333  18.4921875 14.79  C 18.4921875 14.0745833333333  18.423828125 13.4335416666667  18.287109375 12.866875  C 18.150390625 12.3002083333333  17.9609375 11.8096875  17.71875 11.3953125  C 17.4765625 10.9809375  17.1640625 10.6232291666667  16.78125 10.3221875  C 16.3984375 10.0211458333333  15.986328125 9.775  15.544921875 9.58375  C 15.103515625 9.3925  14.583984375 9.24197916666667  13.986328125 9.1321875  C 13.388671875 9.02239583333333  12.787109375 8.94625  12.181640625 8.90375  C 11.576171875 8.86125  10.890625 8.84  10.125 8.84  L 7.5 8.84  L 7.5 11.56  C 7.5 11.7441666666667  7.42578125 11.9035416666667  7.27734375 12.038125  C 7.12890625 12.1727083333333  6.953125 12.24  6.75 12.24  C 6.546875 12.24  6.37109375 12.1727083333333  6.22265625 12.038125  L 0.22265625 6.598125  C 0.07421875 6.46354166666667  0 6.30416666666667  0 6.12  C 0 5.93583333333333  0.07421875 5.77645833333333  0.22265625 5.641875  L 6.22265625 0.201874999999999  C 6.37109375 0.0672916666666659  6.546875 0  6.75 0  C 6.953125 0  7.12890625 0.0672916666666659  7.27734375 0.201874999999999  C 7.42578125 0.336458333333331  7.5 0.495833333333332  7.5 0.680000000000001  L 7.5 3.4  L 10.125 3.4  C 15.6953125 3.4  19.11328125 4.82729166666667  20.37890625 7.681875  Z " fill-rule="nonzero" fill="#7f7f7f" stroke="none" transform="matrix(1 0 0 1 1350 3882 )" />
  </g>
</svg>